<?xml version="1.0" encoding="UTF-8"?>
<svg xmlns="http://www.w3.org/2000/svg" xmlns:xlink="http://www.w3.org/1999/xlink" width="100pt" height="100pt" viewBox="0 0 100 100" version="1.1">
<g id="surface1188529">
<path style=" stroke:none;fill-rule:nonzero;fill:rgb(20.392157%,59.607843%,85.882353%);fill-opacity:1;" d="M 50 16 C 38.746094 16 28.535156 19.527344 21.105469 25.289062 C 13.671875 31.050781 9 39.089844 9 48 C 9 56.84375 13.644531 64.804688 20.984375 70.554688 C 20.980469 77.171875 20.871094 82.714844 17.292969 86.292969 C 17.007812 86.578125 16.921875 87.007812 17.078125 87.382812 C 17.230469 87.757812 17.59375 88 18 88 C 24.742188 88 33.140625 85.976562 38.578125 78.707031 C 42.210938 79.527344 46.03125 80 50 80 C 61.253906 80 71.464844 76.472656 78.894531 70.710938 C 86.328125 64.949219 91 56.910156 91 48 C 91 39.089844 86.328125 31.050781 78.894531 25.289062 C 71.464844 19.527344 61.253906 16 50 16 Z M 50 18 C 60.835938 18 70.628906 21.410156 77.671875 26.867188 C 84.714844 32.328125 89 39.789062 89 48 C 89 56.210938 84.714844 63.671875 77.671875 69.132812 C 70.628906 74.589844 60.835938 78 50 78 C 45.964844 78 42.070312 77.527344 38.414062 76.652344 C 38.015625 76.558594 37.597656 76.714844 37.363281 77.046875 C 32.910156 83.390625 26.082031 85.46875 20.003906 85.835938 C 22.867188 81.621094 23 76.121094 23 70.214844 L 23 70.140625 C 23 69.828125 22.855469 69.535156 22.605469 69.34375 C 15.398438 63.867188 11 56.316406 11 48 C 11 39.789062 15.285156 32.328125 22.328125 26.867188 C 29.371094 21.410156 39.164062 18 50 18 Z M 50 21 C 40.109375 21 31.132812 24 24.609375 28.871094 C 18.085938 33.742188 14 40.515625 14 48 C 14 53.480469 16.191406 58.585938 19.921875 62.828125 C 20.039062 62.964844 20.21875 63.027344 20.394531 62.992188 C 20.570312 62.957031 20.714844 62.828125 20.773438 62.660156 C 20.828125 62.492188 20.792969 62.304688 20.675781 62.167969 C 17.074219 58.078125 15 53.214844 15 48 C 15 40.878906 18.875 34.398438 25.207031 29.671875 C 31.539062 24.945312 40.3125 22 50 22 C 59.503906 22 68.128906 24.835938 74.429688 29.402344 C 74.570312 29.515625 74.765625 29.539062 74.933594 29.46875 C 75.097656 29.394531 75.214844 29.238281 75.230469 29.054688 C 75.246094 28.875 75.164062 28.699219 75.015625 28.59375 C 68.523438 23.886719 59.703125 21 50 21 Z M 49.5 28 C 46.496094 28 44 30.214844 44 33 C 44 35.785156 46.496094 38 49.5 38 C 52.503906 38 55 35.785156 55 33 C 55 30.214844 52.503906 28 49.5 28 Z M 49.5 29 C 52.019531 29 54 30.816406 54 33 C 54 35.183594 52.019531 37 49.5 37 C 46.980469 37 45 35.183594 45 33 C 45 30.816406 46.980469 29 49.5 29 Z M 76.5 29.882812 C 76.289062 29.878906 76.097656 30.011719 76.027344 30.210938 C 75.953125 30.410156 76.015625 30.632812 76.179688 30.769531 C 76.417969 30.964844 76.648438 31.167969 76.878906 31.375 C 77.011719 31.492188 77.199219 31.53125 77.367188 31.476562 C 77.539062 31.417969 77.664062 31.277344 77.703125 31.101562 C 77.738281 30.925781 77.679688 30.746094 77.546875 30.628906 C 77.308594 30.414062 77.066406 30.207031 76.820312 30.003906 C 76.730469 29.925781 76.617188 29.882812 76.5 29.882812 Z M 78.78125 31.992188 C 78.578125 31.992188 78.390625 32.113281 78.3125 32.300781 C 78.234375 32.488281 78.277344 32.703125 78.417969 32.847656 C 78.734375 33.171875 79.035156 33.496094 79.324219 33.828125 C 79.507812 34.039062 79.824219 34.058594 80.03125 33.875 C 80.238281 33.695312 80.261719 33.378906 80.078125 33.167969 C 79.773438 32.824219 79.460938 32.484375 79.136719 32.152344 C 79.042969 32.054688 78.917969 31.996094 78.78125 31.992188 Z M 80.890625 34.492188 C 80.707031 34.503906 80.542969 34.621094 80.464844 34.789062 C 80.390625 34.957031 80.414062 35.15625 80.53125 35.300781 C 83.382812 39.070312 85 43.398438 85 48 C 85 55.121094 81.125 61.601562 74.792969 66.328125 C 68.460938 71.054688 59.6875 74 50 74 C 48.832031 74 47.675781 73.957031 46.539062 73.871094 C 46.261719 73.851562 46.023438 74.058594 46 74.335938 C 45.980469 74.609375 46.1875 74.851562 46.464844 74.871094 C 47.628906 74.957031 48.808594 75 50 75 C 59.890625 75 68.867188 72 75.390625 67.128906 C 81.914062 62.257812 86 55.484375 86 48 C 86 43.164062 84.292969 38.613281 81.328125 34.699219 C 81.234375 34.574219 81.09375 34.5 80.941406 34.492188 C 80.925781 34.492188 80.90625 34.492188 80.890625 34.492188 Z M 42.5 40 C 42.222656 40 42 40.222656 42 40.5 L 42 44.5 C 42 44.777344 42.222656 45 42.5 45 L 45.5 45 C 45.78125 45 46 45.21875 46 45.5 L 46 60.5 C 46 60.78125 45.78125 61 45.5 61 L 41.5 61 C 41.222656 61 41 61.222656 41 61.5 L 41 65.5 C 41 65.777344 41.222656 66 41.5 66 L 59.5 66 C 59.777344 66 60 65.777344 60 65.5 L 60 61.5 C 60 61.222656 59.777344 61 59.5 61 L 55.5 61 C 55.21875 61 55 60.78125 55 60.5 L 55 40.5 C 55 40.222656 54.777344 40 54.5 40 Z M 43 41 L 54 41 L 54 60.5 C 54 61.324219 54.675781 62 55.5 62 L 59 62 L 59 65 L 42 65 L 42 62 L 45.5 62 C 46.324219 62 47 61.324219 47 60.5 L 47 45.5 C 47 44.675781 46.324219 44 45.5 44 L 43 44 Z M 43 41 "/>
</g>
</svg>
