<?xml version="1.0" encoding="UTF-8"?>
<svg xmlns="http://www.w3.org/2000/svg" xmlns:xlink="http://www.w3.org/1999/xlink" width="50pt" height="50pt" viewBox="0 0 50 50" version="1.1">
<g id="surface717333">
<path style=" stroke:none;fill-rule:nonzero;fill:rgb(20.392157%,59.607843%,85.882353%);fill-opacity:1;" d="M 13 3 L 13 22.3125 L 13.1875 22.59375 L 17.78125 29 L 17.90625 29.21875 L 18.75 30.53125 L 22.875 37 L 20.625 37 L 20.34375 37.25 L 14 42.8125 L 14 37 L 11 37 C 8.722656 37 7 35.277344 7 33 L 7 12 C 7 9.722656 8.722656 8 11 8 L 12 8 L 12 6 L 11 6 C 7.675781 6 5 8.675781 5 12 L 5 33 C 5 36.324219 7.675781 39 11 39 L 12 39 L 12 47.21875 L 13.65625 45.75 L 21.375 39 L 40 39 C 43.324219 39 46 36.324219 46 33 L 46 12 C 46 8.675781 43.324219 6 40 6 L 25 6 L 25 3 Z M 15 5 L 23 5 L 23 19.5 L 19.375 18.0625 L 19 17.9375 L 18.625 18.0625 L 15 19.5 Z M 25 8 L 40 8 C 42.277344 8 44 9.722656 44 12 L 44 29 L 20.25 29 L 24.8125 22.59375 L 25 22.3125 Z M 19 20.09375 L 22.96875 21.6875 L 20.625 25 L 17.375 25 L 15.03125 21.6875 Z M 21.40625 31 L 44 31 L 44 33 C 44 35.277344 42.277344 37 40 37 L 25.21875 37 Z M 21.40625 31 "/>
</g>
</svg>
