<?xml version="1.0" encoding="UTF-8"?>
<svg xmlns="http://www.w3.org/2000/svg" xmlns:xlink="http://www.w3.org/1999/xlink" width="64pt" height="64pt" viewBox="0 0 64 64" version="1.1">
<g id="surface833533">
<path style=" stroke:none;fill-rule:nonzero;fill:rgb(20.392157%,59.607843%,85.882353%);fill-opacity:1;" d="M 9 6 C 7.34375 6 6 7.34375 6 9 L 6.003906 55 C 6.003906 56.65625 7.34375 58 9.003906 58 L 44.34375 58 C 45.667969 58.003906 46.941406 57.476562 47.882812 56.539062 L 56.542969 47.882812 C 57.476562 46.941406 58 46 58 44 L 58 9 C 58 7.34375 56.65625 6 55 6 Z M 9 8 L 55 8 C 55.550781 8 56 8.449219 56 9 L 56.003906 44 L 47.003906 44 C 45.34375 44 44.003906 45.34375 44.003906 47 L 44.003906 56 L 9.003906 56 C 8.449219 56 8 55.550781 8 55 L 8 9 C 8 8.449219 8.449219 8 9 8 Z M 12 10 C 11.449219 10 11 10.449219 11 11 L 11 13 C 11 13.550781 11.449219 14 12 14 C 12.550781 14 13 13.550781 13 13 L 13 11 C 13 10.449219 12.550781 10 12 10 Z M 17 10 C 16.449219 10 16 10.449219 16 11 L 16 13 C 16 13.550781 16.449219 14 17 14 C 17.550781 14 18 13.550781 18 13 L 18 11 C 18 10.449219 17.550781 10 17 10 Z M 22 10 C 21.449219 10 21 10.449219 21 11 L 21 13 C 21 13.550781 21.449219 14 22 14 C 22.550781 14 23 13.550781 23 13 L 23 11 C 23 10.449219 22.550781 10 22 10 Z M 27 10 C 26.449219 10 26 10.449219 26 11 L 26 13 C 26 13.550781 26.449219 14 27 14 C 27.550781 14 28 13.550781 28 13 L 28 11 C 28 10.449219 27.550781 10 27 10 Z M 32 10 C 31.449219 10 31 10.449219 31 11 L 31 13 C 31 13.550781 31.449219 14 32 14 C 32.550781 14 33 13.550781 33 13 L 33 11 C 33 10.449219 32.550781 10 32 10 Z M 37 10 C 36.449219 10 36 10.449219 36 11 L 36 13 C 36 13.550781 36.449219 14 37 14 C 37.550781 14 38 13.550781 38 13 L 38 11 C 38 10.449219 37.550781 10 37 10 Z M 42 10 C 41.449219 10 41 10.449219 41 11 L 41 13 C 41 13.550781 41.449219 14 42 14 C 42.550781 14 43 13.550781 43 13 L 43 11 C 43 10.449219 42.550781 10 42 10 Z M 47 10 C 46.449219 10 46 10.449219 46 11 L 46 13 C 46 13.550781 46.449219 14 47 14 C 47.550781 14 48 13.550781 48 13 L 48 11 C 48 10.449219 47.550781 10 47 10 Z M 52 10 C 51.449219 10 51 10.449219 51 11 L 51 13 C 51 13.550781 51.449219 14 52 14 C 52.550781 14 53 13.550781 53 13 L 53 11 C 53 10.449219 52.550781 10 52 10 Z M 22 16 C 19.238281 16 17 18.238281 17 21 L 17 23 C 16.996094 23.953125 17.269531 24.886719 17.777344 25.6875 C 14.894531 27.003906 12.839844 29.652344 12.277344 32.769531 C 12.179688 33.320312 12.546875 33.851562 13.097656 33.949219 C 13.652344 34.046875 14.179688 33.683594 14.277344 33.128906 C 14.75 30.367188 16.71875 28.09375 19.390625 27.242188 C 21.007812 28.246094 23.054688 28.246094 24.667969 27.242188 C 27.339844 28.09375 29.308594 30.367188 29.777344 33.128906 C 29.867188 33.613281 30.289062 33.957031 30.777344 33.949219 C 30.84375 33.960938 30.90625 33.960938 30.96875 33.949219 C 31.511719 33.847656 31.867188 33.328125 31.769531 32.789062 C 31.640625 32.101562 30 27 26.230469 25.6875 C 26.738281 24.882812 27.003906 23.953125 27 23 L 27 21 C 27 18.238281 24.761719 16 22 16 Z M 37 17 C 36.449219 17 36 17.449219 36 18 C 36 18.550781 36.449219 19 37 19 L 51 19 C 51.550781 19 52 18.550781 52 18 C 52 17.449219 51.550781 17 51 17 Z M 22 18 C 23.65625 18 25 19.34375 25 21 L 25 23 C 25 24.65625 23.65625 26 22 26 C 20.34375 26 19 24.65625 19 23 L 19 21 C 19 19.34375 20.34375 18 22 18 Z M 37 21 C 36.449219 21 36 21.449219 36 22 C 36 22.550781 36.449219 23 37 23 L 51 23 C 51.550781 23 52 22.550781 52 22 C 52 21.449219 51.550781 21 51 21 Z M 37 25 C 36.449219 25 36 25.449219 36 26 C 36 26.550781 36.449219 27 37 27 L 41 27 C 41.550781 27 42 26.550781 42 26 C 42 25.449219 41.550781 25 41 25 Z M 13 37 C 12.449219 37 12 37.449219 12 38 C 12 38.550781 12.449219 39 13 39 L 35 39 C 35.550781 39 36 38.550781 36 38 C 36 37.449219 35.550781 37 35 37 Z M 39 37 C 38.449219 37 38 37.449219 38 38 C 38 38.550781 38.449219 39 39 39 L 45 39 C 45.550781 39 46 38.550781 46 38 C 46 37.449219 45.550781 37 45 37 Z M 13 41 C 12.449219 41 12 41.449219 12 42 C 12 42.550781 12.449219 43 13 43 L 41 43 C 41.550781 43 42 42.550781 42 42 C 42 41.449219 41.550781 41 41 41 Z M 46.949219 46 L 55.519531 46 C 55.40625 46.183594 55.273438 46.355469 55.121094 46.511719 L 46.460938 55.121094 C 46.320312 55.257812 46.164062 55.382812 46 55.488281 L 45.949219 47 C 45.949219 46.449219 46.398438 46 46.949219 46 Z M 46.949219 46 "/>
</g>
</svg>
