<?xml version="1.0" encoding="UTF-8"?>
<svg xmlns="http://www.w3.org/2000/svg" xmlns:xlink="http://www.w3.org/1999/xlink" width="100pt" height="100pt" viewBox="0 0 100 100" version="1.1">
<g id="surface1177326">
<path style=" stroke:none;fill-rule:nonzero;fill:rgb(20.392157%,59.607843%,85.882353%);fill-opacity:1;" d="M 24.71875 8 C 22.890625 8 21.296875 9.242188 20.84375 11.015625 L 2.125 85.023438 C 1.820312 86.21875 2.085938 87.484375 2.84375 88.460938 C 3.601562 89.429688 4.765625 90 6 90 L 16.398438 90 C 18.296875 90 19.929688 88.671875 20.3125 86.8125 L 23.8125 70 L 40.1875 70 L 43.6875 86.8125 C 44.070312 88.671875 45.703125 90 47.601562 90 L 58 90 C 59.234375 90 60.398438 89.429688 61.15625 88.460938 C 61.875 87.539062 62.132812 86.34375 61.90625 85.210938 C 64.726562 88.25 68.8125 89.960938 73.5625 89.960938 C 76.390625 89.960938 79.445312 89.382812 82.6875 88.242188 C 82.828125 88.453125 82.992188 88.648438 83.179688 88.835938 C 83.929688 89.578125 84.945312 90 86 90 L 86.023438 90 L 94.023438 89.960938 C 96.21875 89.945312 97.992188 88.164062 98 85.960938 C 98 85.765625 98.023438 66.140625 98 61.976562 L 98 61.804688 C 97.976562 55.820312 97.929688 45.8125 90.21875 40.671875 C 87.515625 38.867188 83.914062 37.914062 79.8125 37.914062 C 72.898438 37.914062 65.34375 40.492188 59.601562 44.804688 C 58.695312 45.476562 58.117188 46.507812 58.015625 47.632812 C 57.914062 48.765625 58.289062 49.882812 59.0625 50.710938 C 59.789062 51.507812 64.289062 55.960938 65.1875 56.84375 C 65.960938 57.609375 66.976562 58 68 58 C 68.773438 58 69.539062 57.78125 70.21875 57.328125 C 72.242188 55.984375 76.117188 54 78 54 C 79.632812 54 81.195312 54 81.773438 58.007812 C 81.492188 58.007812 81.210938 58.007812 80.921875 58.007812 C 76.164062 58.007812 65.015625 58.007812 60.484375 65.570312 C 59.445312 67.304688 58.757812 69.1875 58.359375 71.101562 L 43.15625 11.015625 C 42.703125 9.242188 41.109375 8 39.28125 8 Z M 24.71875 12 L 39.28125 12 L 58 86 L 47.601562 86 L 43.4375 66 L 20.5625 66 L 16.398438 86 L 6 86 Z M 32 20 L 22 56 L 42 56 Z M 32 34.945312 L 36.742188 52 L 27.257812 52 Z M 79.8125 41.914062 C 83 41.914062 85.875 42.578125 88 44 C 94 48 93.976562 56.367188 94 62 C 94.023438 66.203125 94 85.960938 94 85.960938 L 86 86 L 86 82.460938 C 81.101562 84.929688 76.953125 85.960938 73.5625 85.960938 C 62.546875 85.960938 59.421875 75.132812 63.914062 67.625 C 66.992188 62.484375 75.054688 62 80.921875 62 C 82.265625 62 83.492188 62.03125 84.515625 62.03125 C 85.078125 62.03125 85.578125 62.015625 86 62 C 86 53.992188 84 50 78 50 C 74 50 68 54 68 54 C 68 54 62.710938 48.765625 62 48 C 67.164062 44.125 74 41.921875 79.8125 41.914062 Z M 80 68 C 77 68 74.429688 67.9375 72.195312 68.578125 C 71.085938 68.898438 69.984375 69.4375 69.1875 70.40625 C 68.382812 71.375 68 72.664062 68 74 C 68 76.515625 69.484375 78.648438 71.4375 79.40625 C 73.398438 80.171875 75.523438 79.9375 77.554688 79.28125 C 79.585938 78.617188 81.5625 77.484375 83.132812 75.945312 C 84.710938 74.414062 85.945312 72.398438 86 70.054688 L 86.054688 68 Z M 80 72 L 80.914062 72 C 80.671875 72.367188 80.71875 72.726562 80.34375 73.085938 C 79.28125 74.117188 77.765625 75.007812 76.320312 75.46875 C 74.882812 75.9375 73.53125 75.9375 72.890625 75.6875 C 72.25 75.429688 72 75.3125 72 74 C 72 73.335938 72.117188 73.125 72.25 72.96875 C 72.390625 72.8125 72.664062 72.601562 73.304688 72.421875 C 74.570312 72.0625 77 72 80 72 Z M 80 72 "/>
</g>
</svg>
