<?xml version="1.0" encoding="UTF-8"?>
<svg xmlns="http://www.w3.org/2000/svg" xmlns:xlink="http://www.w3.org/1999/xlink" width="90pt" height="90pt" viewBox="0 0 90 90" version="1.1">
<g id="surface1120057">
<path style=" stroke:none;fill-rule:nonzero;fill:rgb(20.392157%,59.607843%,85.882353%);fill-opacity:1;" d="M 46.589844 11.9375 C 46.316406 11.933594 46.046875 11.953125 45.78125 12 L 36 12 C 29 12 24.230469 15.6875 21.597656 19.203125 C 18.964844 22.714844 18.089844 26.273438 18.089844 26.273438 C 17.6875 27.882812 18.664062 29.511719 20.273438 29.914062 C 21.882812 30.3125 23.511719 29.335938 23.914062 27.726562 C 23.914062 27.726562 24.535156 25.285156 26.402344 22.800781 C 28.269531 20.3125 31 18 36 18 L 41.5 18 C 39.539062 26.265625 37.800781 33.082031 36.203125 39 L 33 39 C 31.917969 38.984375 30.910156 39.554688 30.367188 40.488281 C 29.820312 41.421875 29.820312 42.578125 30.367188 43.511719 C 30.910156 44.445312 31.917969 45.015625 33 45 L 34.585938 45 C 32.304688 52.929688 30.34375 58.515625 28.558594 62.132812 C 26.820312 65.65625 25.359375 67.234375 24.191406 67.988281 C 23.027344 68.738281 21.816406 69 19.5 69 C 17.34375 69 17.394531 68.25 17.394531 68.25 C 16.609375 66.820312 15.113281 65.929688 13.484375 65.917969 C 11.855469 65.90625 10.34375 66.777344 9.539062 68.195312 C 8.734375 69.613281 8.757812 71.355469 9.605469 72.75 C 9.605469 72.75 13.125 78 19.5 78 C 22.640625 78 26.03125 77.511719 29.074219 75.546875 C 32.117188 73.578125 34.480469 70.46875 36.628906 66.117188 C 39.023438 61.257812 41.347656 54.34375 43.953125 45 L 60 45 C 61.082031 45.015625 62.089844 44.445312 62.632812 43.511719 C 63.179688 42.578125 63.179688 41.421875 62.632812 40.488281 C 62.089844 39.554688 61.082031 38.984375 60 39 L 45.5625 39 C 47.152344 32.9375 48.835938 26.21875 50.773438 18 L 78 18 C 79.082031 18.015625 80.089844 17.445312 80.632812 16.511719 C 81.179688 15.578125 81.179688 14.421875 80.632812 13.488281 C 80.089844 12.554688 79.082031 11.984375 78 12 L 47.25 12 C 47.03125 11.960938 46.808594 11.941406 46.589844 11.9375 Z M 46.589844 11.9375 "/>
</g>
</svg>
