<?xml version="1.0" encoding="UTF-8"?>
<svg xmlns="http://www.w3.org/2000/svg" xmlns:xlink="http://www.w3.org/1999/xlink" width="128pt" height="128pt" viewBox="0 0 128 128" version="1.1">
<g id="surface1176409">
<path style=" stroke:none;fill-rule:nonzero;fill:rgb(20.392157%,59.607843%,85.882353%);fill-opacity:1;" d="M 44.8125 12 C 42.289062 12 40.019531 13.59375 39.164062 15.964844 L 5.082031 110.644531 C 4.640625 111.867188 4.828125 113.238281 5.574219 114.300781 C 6.320312 115.363281 7.546875 116 8.847656 116 L 19.1875 116 C 21.710938 116 23.980469 114.40625 24.835938 112.035156 L 30.605469 96 L 69.394531 96 L 75.167969 112.035156 C 76.019531 114.40625 78.289062 116 80.8125 116 L 91.152344 116 C 92.453125 116 93.679688 115.367188 94.425781 114.300781 C 95.171875 113.234375 95.359375 111.867188 94.917969 110.644531 L 60.835938 15.964844 C 59.980469 13.59375 57.710938 12 55.1875 12 Z M 44.8125 16 L 55.1875 16 C 56.027344 16 56.785156 16.53125 57.070312 17.320312 L 91.152344 112 L 80.8125 112 C 79.972656 112 79.214844 111.46875 78.929688 110.679688 L 72.683594 93.320312 C 72.398438 92.527344 71.644531 92 70.800781 92 L 29.199219 92 C 28.355469 92 27.601562 92.527344 27.316406 93.320312 L 21.070312 110.679688 C 20.785156 111.46875 20.03125 112 19.1875 112 L 8.847656 112 L 42.929688 17.320312 C 43.214844 16.53125 43.96875 16 44.8125 16 Z M 100 20 C 97.792969 20 96 21.792969 96 24 L 96 36 L 84 36 C 81.792969 36 80 37.792969 80 40 L 80 44 C 80 46.207031 81.792969 48 84 48 L 96 48 L 96 60 C 96 62.207031 97.792969 64 100 64 L 104 64 C 106.207031 64 108 62.207031 108 60 L 108 48 L 120 48 C 122.207031 48 124 46.207031 124 44 L 124 40 C 124 37.792969 122.207031 36 120 36 L 108 36 L 108 24 C 108 21.792969 106.207031 20 104 20 Z M 100 24 L 104 24 L 104 38 C 104 39.105469 104.894531 40 106 40 L 120 40 L 120 44 L 106 44 C 104.894531 44 104 44.894531 104 46 L 104 60 L 100 60 L 100 46 C 100 44.894531 99.105469 44 98 44 L 84 44 L 84 40 L 98 40 C 99.105469 40 100 39.105469 100 38 Z M 50 34.222656 C 49.15625 34.222656 48.402344 34.75 48.117188 35.542969 L 33.078125 77.320312 C 32.859375 77.933594 32.949219 78.613281 33.324219 79.148438 C 33.699219 79.683594 34.308594 80 34.960938 80 L 65.039062 80 C 65.691406 80 66.300781 79.683594 66.675781 79.148438 C 67.050781 78.613281 67.140625 77.933594 66.921875 77.320312 L 51.882812 35.542969 C 51.597656 34.75 50.84375 34.222656 50 34.222656 Z M 50 42.125 L 62.195312 76 L 37.804688 76 Z M 34 100.113281 C 32.894531 100.113281 32 101.007812 32 102.113281 L 32 106.113281 C 32 107.21875 32.894531 108.113281 34 108.113281 C 35.105469 108.113281 36 107.21875 36 106.113281 L 36 102.113281 C 36 101.007812 35.105469 100.113281 34 100.113281 Z M 44 100.113281 C 42.894531 100.113281 42 101.007812 42 102.113281 L 42 106.113281 C 42 107.21875 42.894531 108.113281 44 108.113281 C 45.105469 108.113281 46 107.21875 46 106.113281 L 46 102.113281 C 46 101.007812 45.105469 100.113281 44 100.113281 Z M 54 100.113281 C 52.894531 100.113281 52 101.007812 52 102.113281 L 52 106.113281 C 52 107.21875 52.894531 108.113281 54 108.113281 C 55.105469 108.113281 56 107.21875 56 106.113281 L 56 102.113281 C 56 101.007812 55.105469 100.113281 54 100.113281 Z M 64 100.113281 C 62.894531 100.113281 62 101.007812 62 102.113281 L 62 106.113281 C 62 107.21875 62.894531 108.113281 64 108.113281 C 65.105469 108.113281 66 107.21875 66 106.113281 L 66 102.113281 C 66 101.007812 65.105469 100.113281 64 100.113281 Z M 64 100.113281 "/>
</g>
</svg>
