<?xml version="1.0" encoding="UTF-8"?>
<svg xmlns="http://www.w3.org/2000/svg" xmlns:xlink="http://www.w3.org/1999/xlink" width="100pt" height="100pt" viewBox="0 0 100 100" version="1.1">
<g id="surface484019">
<path style=" stroke:none;fill-rule:nonzero;fill:rgb(100%,100%,100%);fill-opacity:1;" d="M 11 14 C 6.039062 14 2 18.039062 2 23 L 2 23.851562 L 50 58 L 98 23.851562 L 98 23 C 98 18.039062 93.960938 14 89 14 Z M 12.703125 18 L 87.289062 18 L 50 44 Z M 2 28.054688 L 2 77 C 2 81.960938 6.039062 86 11 86 L 89 86 C 93.960938 86 98 81.960938 98 77 L 98 28.054688 L 86 36.59375 L 86 82 L 14 82 L 14 36.59375 Z M 2 28.054688 "/>
</g>
</svg>
