<svg xmlns="http://www.w3.org/2000/svg" viewBox="0 0 80 80" width="160px" height="160px"><path fill="#fff" d="M2.5 8.5H77.5V71.5H2.5z"/><path fill="#788b9c" d="M77,9v62H3V9H77 M78,8H2v64h76V8L78,8z"/><path fill="#b5deff" d="M12 18H68V53.75H12z"/><path fill="#d9f6ff" d="M12 38H68V54H12z"/><path fill="#7aadf0" d="M12 54H68V62H12z"/><path fill="#d9f6ff" d="M29.5 30A7 6.286 0 1 0 29.5 42.572A7 6.286 0 1 0 29.5 30Z"/><path fill="#d9f6ff" d="M22.5 31.572000000000003A5.25 4.714 0 1 0 22.5 41 5.25 4.714 0 1 0 22.5 31.572000000000003zM40 33.143A7 6.286 0 1 0 40 45.715 7 6.286 0 1 0 40 33.143z"/><path fill="#d9f6ff" d="M50.5 30A7 6.286 0 1 0 50.5 42.572 7 6.286 0 1 0 50.5 30zM64.5 33.143A3.5 3.143 0 1 0 64.5 39.429 3.5 3.143 0 1 0 64.5 33.143zM15.5 33.143A3.5 3.143 0 1 0 15.5 39.429 3.5 3.143 0 1 0 15.5 33.143z"/><path fill="#d9f6ff" d="M57.5 31.572000000000003A5.25 4.714 0 1 0 57.5 41A5.25 4.714 0 1 0 57.5 31.572000000000003Z"/><path fill="#4a6d9c" d="M12 54L68 54 68 50.768 50.5 40z"/><path fill="#5d84b8" d="M54 54L12 54 12 46 29.5 38z"/></svg>