<svg xmlns="http://www.w3.org/2000/svg" viewBox="0 0 64 64" width="256px" height="256px"><rect width="62" height="46" x="1" y="9" fill="#bbdef9" rx="3" ry="3"/><path fill="#def0ff" d="M37.9 55.1L63.49 29.51 63 12 19.9 55.1 37.9 55.1zM15.37 54.93L8.81 54.93 55 8.74 61.56 8.74 15.37 54.93zM4.33 54.67L1 54 46 9 50 9 4.33 54.67z"/><path fill="#97e0bb" d="M48 51.13L33.38 36.63 19 51 48 51.13z"/><path fill="#72caaf" d="M62.34 47.26L47.87 34 30 51.87 62.34 51.87 62.34 47.26z"/><path fill="#72caaf" d="M4,51H60a3,3,0,0,1,3,3v1a0,0,0,0,1,0,0H1a0,0,0,0,1,0,0V54A3,3,0,0,1,4,51Z" transform="rotate(-180 32 53)"/><path fill="#ffeb9b" d="M17 21A4 4 0 1 0 17 29A4 4 0 1 0 17 21Z"/><path fill="#8d6c9f" d="M22.07 25a5 5 0 1 0-5 5A5 5 0 0 0 22.07 25zm-5 3a3 3 0 1 1 3-3A3 3 0 0 1 17.07 28zM16 33v2a1 1 0 0 0 2 0V33a1 1 0 0 0-2 0zM17 18a1 1 0 0 0 1-1V15a1 1 0 1 0-2 0v2A1 1 0 0 0 17 18zM24 25a1 1 0 0 0 1 1h2a1 1 0 0 0 0-2H25A1 1 0 0 0 24 25zM7 26H9a1 1 0 0 0 0-2H7a1 1 0 1 0 0 2zM21.13 34.16a1 1 0 0 0 .87.5.84.84 0 0 0 .5-.14 1 1 0 0 0 .37-1.37l-1-1.73a1 1 0 0 0-1.73 1zM12.13 18.57a1 1 0 0 0 .87.5.84.84 0 0 0 .5-.14 1 1 0 0 0 .37-1.37l-1-1.73a1 1 0 0 0-1.73 1zM23.06 21.5a1.05 1.05 0 0 0 .88.53.84.84 0 0 0 .48-.16l1.73-1a1 1 0 1 0-1-1.73l-1.73 1A1 1 0 0 0 23.06 21.5zM10.94 28.5a1 1 0 0 0-1.37-.37l-1.73 1a1 1 0 0 0-.37 1.37 1.05 1.05 0 0 0 .88.53.84.84 0 0 0 .48-.16l1.73-1A1 1 0 0 0 10.94 28.5zM23.43 29.87l1.73 1a.84.84 0 0 0 .48.16 1.05 1.05 0 0 0 .88-.53 1 1 0 0 0-.37-1.37l-1.73-1a1 1 0 1 0-1 1.73zM7.84 20.87l1.73 1a.84.84 0 0 0 .48.16 1.05 1.05 0 0 0 .88-.53 1 1 0 0 0-.37-1.37l-1.73-1a1 1 0 1 0-1 1.73zM20.5 18.94a.84.84 0 0 0 .5.14 1 1 0 0 0 .87-.5l1-1.73a1 1 0 1 0-1.73-1l-1 1.73A1 1 0 0 0 20.5 18.94zM12.87 34.16l1-1.73a1 1 0 1 0-1.73-1l-1 1.73a1 1 0 0 0 .37 1.37.84.84 0 0 0 .5.14A1 1 0 0 0 12.87 34.16zM59 50H32.41L47.29 35.12a1 1 0 0 1 1.41 0l9.59 9.59a1 1 0 0 0 1.41-1.41l-9.59-9.59a3.07 3.07 0 0 0-4.24 0l-6.39 6.39L36.1 36.7a3.09 3.09 0 0 0-4.2 0L18.6 50H13a1 1 0 0 0-1 1 1 1 0 0 0 1 1H59a1 1 0 1 0 0-2zM33.3 38.1a1 1 0 0 1 1.4 0l3.39 3.39L29.59 50H21.4zM9 50H5a1 1 0 0 0 0 2H9a1 1 0 0 0 0-2z"/><path fill="#8d6c9f" d="M61,8H3a3,3,0,0,0-3,3V53a3,3,0,0,0,3,3H61a3,3,0,0,0,3-3V11A3,3,0,0,0,61,8Zm1,45a1,1,0,0,1-1,1H3a1,1,0,0,1-1-1V11a1,1,0,0,1,1-1H61a1,1,0,0,1,1,1Z"/></svg>