<?xml version="1.0" encoding="UTF-8"?>
<svg xmlns="http://www.w3.org/2000/svg" xmlns:xlink="http://www.w3.org/1999/xlink" width="64pt" height="64pt" viewBox="0 0 64 64" version="1.1">
<g id="surface689065">
<path style=" stroke:none;fill-rule:nonzero;fill:rgb(20.392157%,59.607843%,85.882353%);fill-opacity:1;" d="M 54 7.5625 L 51.625 8.0625 L 19.625 14.0625 L 18 14.3125 L 18 41.125 C 16.8125 40.429688 15.46875 40 14 40 C 9.601562 40 6 43.601562 6 48 C 6 52.398438 9.601562 56 14 56 C 18.398438 56 22 52.398438 22 48 L 22 25.625 L 50 20.375 L 50 35.125 C 48.8125 34.429688 47.46875 34 46 34 C 41.601562 34 38 37.601562 38 42 C 38 46.398438 41.601562 50 46 50 C 50.398438 50 54 46.398438 54 42 Z M 50 12.375 L 50 16.375 L 22 21.625 L 22 17.625 Z M 46 38 C 48.234375 38 50 39.765625 50 42 C 50 44.234375 48.234375 46 46 46 C 43.765625 46 42 44.234375 42 42 C 42 39.765625 43.765625 38 46 38 Z M 14 44 C 16.234375 44 18 45.765625 18 48 C 18 50.234375 16.234375 52 14 52 C 11.765625 52 10 50.234375 10 48 C 10 45.765625 11.765625 44 14 44 Z M 14 44 "/>
</g>
</svg>
