<svg xmlns="http://www.w3.org/2000/svg" viewBox="0 0 100 100" width="400px" height="400px"><path fill="#f15b6c" d="M71,23.75l-30,7.5V69l0,2.26c0.005,3.489-4.894,8.025-11.893,10.723c-7.876,3.036-15.428,2.594-16.868-0.986c-1.44-3.581,3.778-8.944,11.655-11.98c3.626-1.398,7.183-2.058,10.107-2.015L34,66V26l44-11v43l0,2.26c0.005,3.489-4.894,8.025-11.893,10.723c-7.876,3.036-15.428,2.594-16.868-0.986c-1.44-3.581,3.778-8.944,11.655-11.98c3.626-1.398,7.183-2.058,10.107-2.015L71,55V23.75z"/><path fill="#1f212b" d="M19.192 81.023c-.719 0-1.293-.047-1.715-.101-.274-.035-.467-.285-.433-.56.035-.272.286-.464.56-.433 1.245.157 3.918.253 7.814-.908.265-.077.543.073.622.337.079.265-.072.543-.336.622C22.928 80.808 20.73 81.023 19.192 81.023zM27.502 79.352c-.203 0-.394-.124-.468-.325-.097-.259.035-.547.293-.644l.343-.13c.2-.077.397-.155.59-.234.257-.106.548.016.653.271.105.255-.017.548-.272.652-.201.083-.405.165-.612.244l-.353.134C27.619 79.342 27.56 79.352 27.502 79.352zM30.488 78.054c-.183 0-.359-.101-.447-.275-.124-.246-.025-.547.222-.671.681-.343 1.339-.711 1.957-1.095.234-.146.543-.072.688.161.146.234.074.543-.161.688-.643.399-1.327.782-2.035 1.138C30.641 78.037 30.564 78.054 30.488 78.054zM32.483 71.047c-.26 0-.479-.2-.498-.463-.021-.275.187-.516.462-.536.355-.025.703-.041 1.043-.046.285.04.503.217.507.492.004.276-.216.504-.493.508-.321.005-.649.019-.985.044C32.508 71.047 32.495 71.047 32.483 71.047zM25.15 72.78c-.201 0-.39-.122-.467-.32-.099-.258.03-.547.287-.646 1.828-.703 3.656-1.213 5.434-1.515.279-.043.531.137.577.409.046.272-.137.53-.409.577-1.712.291-3.477.782-5.242 1.462C25.271 72.77 25.209 72.78 25.15 72.78zM54.525 69.925c-.021 0-.043-.001-.065-.004-.4-.053-.763-.122-1.077-.208-.267-.072-.424-.347-.352-.613.073-.267.347-.421.613-.352.271.073.589.135.945.181.273.036.467.287.431.561C54.988 69.741 54.773 69.925 54.525 69.925zM56.501 70.021c-.272 0-.495-.218-.5-.49-.005-.276.214-.505.491-.51.634-.012 1.3-.062 1.981-.148.275-.036.524.159.559.433.035.274-.159.524-.433.56-.716.091-1.418.144-2.088.156C56.508 70.021 56.504 70.021 56.501 70.021zM60.506 69.529c-.23 0-.438-.16-.488-.396-.058-.27.114-.535.384-.594 1.388-.298 2.825-.73 4.269-1.287 4.587-1.772 7.034-3.936 8.084-5.067.188-.204.504-.215.707-.026.202.188.214.504.026.706-1.109 1.195-3.683 3.476-8.458 5.321-1.493.574-2.98 1.022-4.419 1.332C60.576 69.525 60.541 69.529 60.506 69.529z"/><g><path fill="#1f212b" d="M19.337,84.991c-4.028,0-7.068-1.238-8.026-3.621c-0.475-1.181-0.401-2.55,0.213-3.96c1.514-3.481,6.116-7.055,12.01-9.326c3.224-1.243,6.542-1.966,9.466-2.07V26c0-0.459,0.312-0.858,0.757-0.97l44-11c0.297-0.078,0.615-0.009,0.858,0.182C78.858,14.401,79,14.692,79,15v45.26c0.006,4.016-5.148,8.81-12.534,11.656c-8.513,3.282-16.488,2.602-18.155-1.546c-0.475-1.181-0.401-2.55,0.213-3.96c1.514-3.481,6.116-7.055,12.01-9.326c3.224-1.243,6.542-1.966,9.466-2.07V25.031l-28,7V71.26c0.006,4.016-5.148,8.81-12.534,11.656C25.845,84.312,22.319,84.991,19.337,84.991z M33.73,68c-2.853,0-6.206,0.688-9.477,1.949c-5.331,2.055-9.607,5.297-10.896,8.259c-0.401,0.921-0.465,1.734-0.191,2.416c1.06,2.633,7.718,3.456,15.581,0.426C36.062,78.23,40.004,73.902,40,71.262V31.25c0-0.459,0.312-0.858,0.757-0.97l30-7.5c0.297-0.077,0.616-0.009,0.858,0.182C71.858,23.151,72,23.442,72,23.75v32.252c0,0.268-0.107,0.524-0.298,0.712s-0.447,0.27-0.716,0.288c-2.902-0.034-6.363,0.648-9.732,1.947c-5.331,2.055-9.607,5.297-10.896,8.259c-0.401,0.921-0.465,1.734-0.191,2.416c1.06,2.633,7.717,3.456,15.581,0.426C73.062,67.23,77.004,62.902,77,60.262v-43.98l-42,10.5v40.221c0,0.268-0.107,0.524-0.298,0.712c-0.191,0.188-0.453,0.294-0.716,0.288C33.901,68.001,33.815,68,33.73,68z"/></g><g><path fill="#1f212b" d="M41,37.75c-0.224,0-0.428-0.151-0.484-0.379c-0.067-0.268,0.096-0.539,0.364-0.606l26.485-6.621c0.268-0.065,0.539,0.096,0.606,0.364c0.067,0.268-0.096,0.539-0.364,0.606l-26.485,6.621C41.081,37.745,41.04,37.75,41,37.75z"/></g></svg>