<?xml version="1.0" encoding="UTF-8"?>
<svg xmlns="http://www.w3.org/2000/svg" xmlns:xlink="http://www.w3.org/1999/xlink" width="64pt" height="64pt" viewBox="0 0 64 64" version="1.1">
<g id="surface688484">
<path style=" stroke:none;fill-rule:nonzero;fill:rgb(20.392157%,59.607843%,85.882353%);fill-opacity:1;" d="M 61.910156 31.589844 C 61.75 31.230469 61.398438 31 61 31 L 49 31 L 49 17.5 C 49 17.21875 48.878906 16.949219 48.671875 16.761719 L 32.671875 2.261719 C 32.378906 1.988281 31.960938 1.929688 31.589844 2.089844 C 31.230469 2.25 31 2.601562 31 3 L 31 15 L 17.5 15 C 17.21875 15 16.949219 15.121094 16.761719 15.328125 L 2.261719 31.328125 C 1.988281 31.621094 1.929688 32.039062 2.089844 32.410156 C 2.25 32.769531 2.601562 33 3 33 L 15 33 L 15 46.5 C 15 46.78125 15.121094 47.050781 15.328125 47.238281 L 31.328125 61.738281 C 31.519531 61.910156 31.761719 62 32 62 C 32.140625 62 32.28125 61.96875 32.410156 61.910156 C 32.769531 61.75 33 61.398438 33 61 L 33 49 L 46.5 49 C 46.78125 49 47.050781 48.878906 47.238281 48.671875 L 61.738281 32.671875 C 62.011719 32.378906 62.070312 31.960938 61.910156 31.589844 Z M 33 5.261719 L 46.351562 17.359375 L 34.738281 28.980469 C 33.660156 27.851562 33 26.339844 33 24.671875 Z M 47 19.539062 L 47 31 L 39.460938 31 C 38.328125 31 37.261719 30.710938 36.339844 30.210938 Z M 31 17 L 31 24.539062 C 31 25.671875 30.710938 26.738281 30.210938 27.660156 L 19.539062 17 Z M 5.261719 31 L 17.359375 17.648438 L 28.980469 29.261719 C 27.851562 30.339844 26.339844 31 24.671875 31 Z M 17 33 L 24.539062 33 C 25.671875 33 26.738281 33.289062 27.660156 33.789062 L 17 44.460938 Z M 31 58.738281 L 17.648438 46.640625 L 29.261719 35.019531 C 30.339844 36.148438 31 37.660156 31 39.328125 Z M 32.011719 35.429688 C 31.230469 33.980469 30.03125 32.789062 28.570312 32.011719 C 30.019531 31.230469 31.210938 30.03125 31.988281 28.570312 C 32.769531 30.019531 33.96875 31.210938 35.429688 31.988281 C 33.980469 32.769531 32.789062 33.96875 32.011719 35.429688 Z M 33 47 L 33 39.460938 C 33 38.328125 33.289062 37.261719 33.789062 36.339844 L 44.460938 47 Z M 46.640625 46.351562 L 35.019531 34.738281 C 36.148438 33.660156 37.660156 33 39.328125 33 L 58.738281 33 Z M 46.640625 46.351562 "/>
<path style=" stroke:none;fill-rule:nonzero;fill:rgb(57.647059%,78.431373%,92.54902%);fill-opacity:1;" d="M 44.460938 47 L 33 47 L 33 39.460938 C 33 38.328125 33.289062 37.261719 33.789062 36.339844 Z M 44.460938 47 "/>
<path style=" stroke:none;fill-rule:nonzero;fill:rgb(57.647059%,78.431373%,92.54902%);fill-opacity:1;" d="M 47 19.539062 L 47 31 L 39.460938 31 C 38.328125 31 37.261719 30.710938 36.339844 30.210938 Z M 47 19.539062 "/>
<path style=" stroke:none;fill-rule:nonzero;fill:rgb(57.647059%,78.431373%,92.54902%);fill-opacity:1;" d="M 27.660156 33.789062 L 17 44.460938 L 17 33 L 24.539062 33 C 25.671875 33 26.738281 33.289062 27.660156 33.789062 Z M 27.660156 33.789062 "/>
<path style=" stroke:none;fill-rule:nonzero;fill:rgb(57.647059%,78.431373%,92.54902%);fill-opacity:1;" d="M 31 17 L 31 24.539062 C 31 25.671875 30.710938 26.738281 30.210938 27.660156 L 19.539062 17 Z M 31 17 "/>
</g>
</svg>
