<?xml version="1.0" encoding="UTF-8"?>
<svg xmlns="http://www.w3.org/2000/svg" xmlns:xlink="http://www.w3.org/1999/xlink" width="80pt" height="80pt" viewBox="0 0 80 80" version="1.1">
<g id="surface834166">
<path style=" stroke:none;fill-rule:nonzero;fill:rgb(20.392157%,59.607843%,85.882353%);fill-opacity:1;" d="M 34 7 C 21.316406 7 11 17.316406 11 30 C 11 38.59375 15.324219 43.242188 18.796875 46.976562 C 21.144531 49.5 23 51.492188 23 54 L 23 64 C 23 66.75 25.25 69 28 69 L 29.101562 69 C 29.570312 71.273438 31.59375 73 34 73 C 36.40625 73 38.429688 71.273438 38.898438 69 L 40 69 C 42.75 69 45 66.75 45 64 L 45 54 C 45 51.492188 46.855469 49.5 49.203125 46.976562 C 50.558594 45.519531 52.042969 43.917969 53.347656 42 L 50.886719 42 C 49.878906 43.3125 48.789062 44.488281 47.742188 45.613281 C 45.195312 48.347656 43 50.707031 43 54 L 43 55 L 25 55 L 25 54 C 25 50.707031 22.804688 48.347656 20.261719 45.613281 C 16.859375 41.957031 13 37.808594 13 30 C 13 18.421875 22.421875 9 34 9 C 35.871094 9 37.671875 9.269531 39.402344 9.730469 L 41.027344 8.101562 C 38.808594 7.386719 36.449219 7 34 7 Z M 50.621094 7 L 49.160156 10.660156 C 48.402344 10.894531 47.679688 11.191406 46.984375 11.558594 L 43.367188 10.007812 L 40.003906 13.367188 L 41.554688 16.988281 C 41.191406 17.675781 40.894531 18.402344 40.65625 19.160156 L 37 20.625 L 37 25.378906 L 40.660156 26.839844 C 40.894531 27.597656 41.195312 28.320312 41.558594 29.011719 L 40.003906 32.632812 L 43.367188 35.996094 L 46.984375 34.445312 C 47.675781 34.808594 48.402344 35.105469 49.160156 35.34375 L 50.621094 39 L 55.378906 39 L 56.839844 35.339844 C 57.597656 35.105469 58.320312 34.804688 59.011719 34.441406 L 62.632812 35.996094 L 65.996094 32.632812 L 64.445312 29.015625 C 64.808594 28.324219 65.105469 27.597656 65.34375 26.839844 L 69 25.378906 L 69 20.625 L 65.339844 19.160156 C 65.105469 18.402344 64.804688 17.679688 64.441406 16.988281 L 65.996094 13.367188 L 62.632812 10.007812 L 59.015625 11.558594 C 58.324219 11.191406 57.597656 10.894531 56.839844 10.660156 L 55.378906 7 Z M 51.976562 9 L 54.023438 9 L 55.320312 12.246094 L 55.808594 12.378906 C 56.777344 12.632812 57.6875 13.007812 58.527344 13.5 L 58.960938 13.753906 L 62.175781 12.378906 L 63.621094 13.824219 L 62.246094 17.035156 L 62.496094 17.472656 C 62.988281 18.3125 63.367188 19.226562 63.621094 20.191406 L 63.75 20.679688 L 67 21.976562 L 67 24.023438 L 63.75 25.320312 L 63.621094 25.808594 C 63.367188 26.777344 62.992188 27.6875 62.5 28.527344 L 62.246094 28.960938 L 63.621094 32.175781 L 62.175781 33.621094 L 58.960938 32.246094 L 58.527344 32.496094 C 57.6875 32.988281 56.773438 33.367188 55.808594 33.621094 L 55.320312 33.75 L 54.023438 37 L 51.976562 37 L 50.675781 33.75 L 50.1875 33.621094 C 49.222656 33.367188 48.3125 32.992188 47.472656 32.5 L 47.035156 32.246094 L 43.824219 33.621094 L 42.378906 32.175781 L 43.753906 28.960938 L 43.503906 28.527344 C 43.011719 27.6875 42.632812 26.773438 42.378906 25.808594 L 42.246094 25.320312 L 39 24.023438 L 39 21.976562 L 42.246094 20.675781 L 42.378906 20.1875 C 42.632812 19.222656 43.007812 18.3125 43.5 17.472656 L 43.753906 17.035156 L 42.378906 13.824219 L 43.824219 12.378906 L 47.035156 13.753906 L 47.472656 13.5 C 48.3125 13.007812 49.222656 12.632812 50.191406 12.378906 L 50.679688 12.246094 Z M 34 12 C 33.449219 12 33 12.449219 33 13 C 33 13.550781 33.449219 14 34 14 C 34.550781 14 35 13.550781 35 13 C 35 12.449219 34.550781 12 34 12 Z M 29.597656 12.578125 C 29.046875 12.578125 28.597656 13.027344 28.597656 13.578125 C 28.597656 14.128906 29.046875 14.578125 29.597656 14.578125 C 30.152344 14.578125 30.597656 14.128906 30.597656 13.578125 C 30.597656 13.027344 30.152344 12.578125 29.597656 12.578125 Z M 25.496094 14.277344 C 24.945312 14.277344 24.496094 14.726562 24.496094 15.277344 C 24.496094 15.828125 24.945312 16.277344 25.496094 16.277344 C 26.050781 16.277344 26.496094 15.828125 26.496094 15.277344 C 26.496094 14.726562 26.050781 14.277344 25.496094 14.277344 Z M 21.980469 16.980469 C 21.425781 16.980469 20.980469 17.425781 20.980469 17.980469 C 20.980469 18.53125 21.425781 18.980469 21.980469 18.980469 C 22.53125 18.980469 22.980469 18.53125 22.980469 17.980469 C 22.980469 17.425781 22.53125 16.980469 21.980469 16.980469 Z M 53 17 C 49.699219 17 47 19.699219 47 23 C 47 26.300781 49.699219 29 53 29 C 56.300781 29 59 26.300781 59 23 C 59 19.699219 56.300781 17 53 17 Z M 53 19 C 55.222656 19 57 20.777344 57 23 C 57 25.222656 55.222656 27 53 27 C 50.777344 27 49 25.222656 49 23 C 49 20.777344 50.777344 19 53 19 Z M 19.277344 20.5 C 18.726562 20.5 18.277344 20.949219 18.277344 21.5 C 18.277344 22.050781 18.726562 22.5 19.277344 22.5 C 19.828125 22.5 20.277344 22.050781 20.277344 21.5 C 20.277344 20.949219 19.828125 20.5 19.277344 20.5 Z M 17.578125 24.597656 C 17.027344 24.597656 16.578125 25.046875 16.578125 25.597656 C 16.578125 26.152344 17.027344 26.597656 17.578125 26.597656 C 18.128906 26.597656 18.578125 26.152344 18.578125 25.597656 C 18.578125 25.046875 18.128906 24.597656 17.578125 24.597656 Z M 17 29 C 16.449219 29 16 29.449219 16 30 C 16 30.550781 16.449219 31 17 31 C 17.550781 31 18 30.550781 18 30 C 18 29.449219 17.550781 29 17 29 Z M 17.578125 33.402344 C 17.027344 33.402344 16.578125 33.847656 16.578125 34.402344 C 16.578125 34.953125 17.027344 35.402344 17.578125 35.402344 C 18.128906 35.402344 18.578125 34.953125 18.578125 34.402344 C 18.578125 33.847656 18.128906 33.402344 17.578125 33.402344 Z M 19.277344 37.496094 C 18.726562 37.496094 18.277344 37.945312 18.277344 38.496094 C 18.277344 39.050781 18.726562 39.496094 19.277344 39.496094 C 19.828125 39.496094 20.277344 39.050781 20.277344 38.496094 C 20.277344 37.945312 19.828125 37.496094 19.277344 37.496094 Z M 21.980469 41.019531 C 21.425781 41.019531 20.980469 41.46875 20.980469 42.019531 C 20.980469 42.574219 21.425781 43.019531 21.980469 43.019531 C 22.53125 43.019531 22.980469 42.574219 22.980469 42.019531 C 22.980469 41.46875 22.53125 41.019531 21.980469 41.019531 Z M 25 57 L 43 57 L 43 59 L 31 59 L 31 61 L 43 61 L 43 63 L 31 63 L 31 65 L 42.816406 65 C 42.410156 66.167969 41.316406 67 40 67 L 28 67 C 26.683594 67 25.589844 66.167969 25.183594 65 L 29 65 L 29 63 L 25 63 L 25 61 L 29 61 L 29 59 L 25 59 Z M 31.183594 69 L 36.816406 69 C 36.410156 70.167969 35.316406 71 34 71 C 32.683594 71 31.589844 70.167969 31.183594 69 Z M 31.183594 69 "/>
</g>
</svg>
