<?xml version="1.0" encoding="UTF-8"?>
<svg xmlns="http://www.w3.org/2000/svg" xmlns:xlink="http://www.w3.org/1999/xlink" width="100pt" height="100pt" viewBox="0 0 100 100" version="1.1">
<g id="surface1188150">
<path style=" stroke:none;fill-rule:nonzero;fill:rgb(20.392157%,59.607843%,85.882353%);fill-opacity:1;" d="M 74 14 C 73.449219 14 73 14.449219 73 15 L 73 23.835938 C 66.839844 18.410156 58.851562 15 50 15 C 30.679688 15 15 30.679688 15 50 C 15 69.320312 30.679688 85 50 85 C 69.320312 85 85 69.320312 85 50 C 85 49.449219 84.550781 49 84 49 L 78 49 C 77.449219 49 77 49.449219 77 50 C 77 64.921875 64.921875 77 50 77 C 35.078125 77 23 64.921875 23 50 C 23 35.078125 35.078125 23 50 23 C 56.375 23 62.140625 25.304688 66.753906 29 L 59 29 C 58.449219 29 58 29.449219 58 30 L 58 37 C 58 37.550781 58.449219 38 59 38 L 81 38 C 81.550781 38 82 37.550781 82 37 L 82 15 C 82 14.449219 81.550781 14 81 14 Z M 75 16 L 80 16 L 80 36 L 60 36 L 60 31 L 69.570312 31 C 69.976562 31 70.339844 30.753906 70.496094 30.378906 C 70.648438 30 70.558594 29.570312 70.269531 29.285156 C 65.042969 24.167969 57.890625 21 50 21 C 33.996094 21 21 33.996094 21 50 C 21 66.003906 33.996094 79 50 79 C 65.660156 79 78.359375 66.53125 78.898438 51 L 82.898438 51 C 82.359375 68.761719 67.894531 83 50 83 C 31.761719 83 17 68.238281 17 50 C 17 31.761719 31.761719 17 50 17 C 59.105469 17 67.324219 20.695312 73.292969 26.660156 C 73.578125 26.945312 74.007812 27.03125 74.382812 26.875 C 74.757812 26.71875 75 26.355469 75 25.953125 Z M 50 26 C 38.324219 26 28.589844 34.347656 26.445312 45.402344 C 26.390625 45.675781 26.566406 45.9375 26.839844 45.992188 C 27.109375 46.042969 27.371094 45.867188 27.425781 45.597656 C 29.480469 35.003906 38.800781 27 50 27 C 50.148438 27 50.3125 27.007812 50.488281 27.015625 C 50.765625 27.019531 50.992188 26.800781 51 26.523438 C 51.007812 26.25 50.789062 26.019531 50.511719 26.015625 C 50.355469 26.011719 50.1875 26 50 26 Z M 26.515625 48.992188 C 26.242188 48.988281 26.015625 49.210938 26.011719 49.488281 C 26.011719 49.644531 26 49.8125 26 50 C 26 55.585938 27.917969 60.730469 31.121094 64.808594 C 31.226562 64.960938 31.410156 65.039062 31.59375 65.015625 C 31.777344 64.992188 31.933594 64.871094 31.996094 64.699219 C 32.0625 64.527344 32.027344 64.332031 31.90625 64.191406 C 28.835938 60.28125 27 55.359375 27 50 C 27 49.851562 27.007812 49.6875 27.011719 49.511719 C 27.019531 49.375 26.96875 49.246094 26.875 49.148438 C 26.78125 49.050781 26.652344 48.992188 26.515625 48.992188 Z M 73.464844 48.992188 C 73.191406 49.003906 72.976562 49.234375 72.984375 49.511719 C 72.992188 49.6875 73 49.851562 73 50 C 73 54.5 71.703125 58.691406 69.472656 62.234375 C 69.367188 62.386719 69.351562 62.582031 69.433594 62.75 C 69.519531 62.914062 69.6875 63.019531 69.871094 63.023438 C 70.054688 63.027344 70.226562 62.925781 70.320312 62.765625 C 72.648438 59.066406 74 54.691406 74 50 C 74 49.8125 73.988281 49.644531 73.984375 49.488281 C 73.984375 49.351562 73.929688 49.222656 73.832031 49.132812 C 73.734375 49.039062 73.601562 48.988281 73.464844 48.992188 Z M 68.480469 63.976562 C 68.332031 63.984375 68.195312 64.058594 68.109375 64.175781 C 66.960938 65.640625 65.628906 66.957031 64.164062 68.109375 C 64.011719 68.214844 63.929688 68.394531 63.953125 68.578125 C 63.976562 68.761719 64.097656 68.917969 64.273438 68.984375 C 64.445312 69.050781 64.640625 69.015625 64.777344 68.894531 C 66.308594 67.695312 67.691406 66.320312 68.890625 64.792969 C 69.015625 64.636719 69.039062 64.425781 68.949219 64.25 C 68.859375 64.074219 68.675781 63.964844 68.480469 63.976562 Z M 33.492188 66.226562 C 33.289062 66.226562 33.105469 66.351562 33.03125 66.539062 C 32.953125 66.730469 33 66.945312 33.148438 67.085938 C 37.480469 71.359375 43.433594 74 50 74 C 54.265625 74 58.273438 72.878906 61.746094 70.925781 C 61.988281 70.789062 62.070312 70.484375 61.933594 70.246094 C 61.800781 70.003906 61.496094 69.917969 61.253906 70.054688 C 57.925781 71.929688 54.09375 73 50 73 C 43.703125 73 38.003906 70.46875 33.851562 66.375 C 33.757812 66.277344 33.628906 66.222656 33.492188 66.226562 Z M 33.492188 66.226562 "/>
</g>
</svg>
