<?xml version="1.0" encoding="UTF-8"?>
<svg xmlns="http://www.w3.org/2000/svg" xmlns:xlink="http://www.w3.org/1999/xlink" width="200pt" height="200pt" viewBox="0 0 200 200" version="1.1">
<g id="surface521136">
<path style=" stroke:none;fill-rule:nonzero;fill:rgb(100%,100%,100%);fill-opacity:1;" d="M 115.84375 30.003906 C 114.109375 29.921875 112.5 30.984375 111.910156 32.695312 C 109.902344 38.511719 106.339844 41.535156 101.027344 41.933594 C 94.542969 42.386719 90.355469 39.460938 87.835938 32.664062 C 87.117188 30.75 85.085938 29.6875 83.144531 30.191406 C 75.601562 32.03125 68.527344 34.996094 62.121094 39.011719 C 60.40625 40.089844 59.773438 42.285156 60.644531 44.109375 C 63.5 50.132812 62.910156 54.882812 58.777344 59.074219 C 54.621094 63.328125 49.84375 63.992188 43.757812 61.195312 C 41.902344 60.300781 39.703125 60.972656 38.664062 62.734375 C 34.683594 69.277344 31.804688 76.382812 30.113281 83.824219 C 29.628906 85.800781 30.714844 87.804688 32.613281 88.480469 C 38.707031 90.71875 41.609375 94.425781 41.746094 100.136719 C 41.882812 106.097656 39.03125 110.011719 32.769531 112.441406 C 30.902344 113.15625 29.851562 115.160156 30.324219 117.101562 C 32.097656 124.441406 35.066406 131.476562 39.152344 138.019531 C 40.21875 139.726562 42.324219 140.371094 44.148438 139.558594 C 50.050781 136.921875 54.710938 137.542969 58.8125 141.53125 C 63.003906 145.625 63.742188 150.332031 61.140625 156.332031 C 60.339844 158.136719 61.007812 160.289062 62.707031 161.335938 C 69.296875 165.339844 76.367188 168.222656 83.550781 169.863281 C 83.976562 170 84.339844 170 84.554688 170 C 86.105469 170 87.597656 169.042969 88.179688 167.792969 C 88.398438 167.425781 88.535156 167.125 88.570312 166.980469 C 90.535156 161.839844 94.863281 158.613281 99.867188 158.5625 L 100.222656 158.546875 C 105.441406 158.613281 109.75 161.644531 111.78125 166.703125 C 112.832031 169.21875 115.050781 170.3125 117.707031 169.621094 C 124.367188 167.941406 130.800781 165.277344 136.917969 161.644531 L 137.789062 161.054688 C 139.425781 160.015625 140.0625 157.945312 139.28125 156.09375 C 136.851562 150.609375 137.28125 146.230469 140.640625 142.3125 C 144.773438 137.476562 149.722656 136.511719 156.230469 139.292969 C 158.027344 140.054688 160.144531 139.371094 161.175781 137.710938 C 165.203125 131.207031 168.132812 124.160156 169.894531 116.757812 L 169.898438 116.738281 C 170.339844 114.8125 169.285156 112.828125 167.4375 112.121094 C 161.402344 109.808594 158.535156 106.097656 158.414062 100.445312 C 158.292969 94.496094 161.164062 90.585938 167.433594 88.152344 C 169.125 87.507812 170.160156 85.804688 169.960938 84.039062 C 169.445312 78.863281 163.867188 65.4375 160.777344 61.9375 C 159.617188 60.613281 157.691406 60.210938 156.101562 60.96875 C 150.152344 63.75 145.441406 63.121094 141.261719 58.992188 C 137.054688 54.832031 136.40625 50.03125 139.230469 43.878906 C 140.070312 42.03125 139.410156 39.851562 137.707031 38.824219 C 131.089844 34.75 123.984375 31.816406 116.59375 30.109375 C 116.34375 30.050781 116.089844 30.015625 115.84375 30.003906 Z M 115.675781 34.011719 C 122.65625 35.625 129.363281 38.386719 135.59375 42.222656 C 132.074219 49.882812 133.035156 56.488281 138.445312 61.84375 C 143.824219 67.164062 150.335938 68.09375 157.773438 64.589844 C 160.332031 67.488281 165.546875 80.105469 165.992188 84.425781 C 158.152344 87.46875 154.253906 92.890625 154.410156 100.535156 C 154.566406 107.816406 158.464844 112.972656 165.996094 115.863281 C 164.339844 122.832031 161.570312 129.472656 157.792969 135.613281 C 149.675781 132.152344 142.890625 133.527344 137.601562 139.710938 C 133.246094 144.789062 132.578125 150.847656 135.542969 157.75 L 134.78125 158.269531 C 129.089844 161.648438 123.011719 164.15625 116.714844 165.746094 C 115.988281 165.9375 115.75 165.820312 115.480469 165.1875 C 112.804688 158.527344 107.035156 154.546875 100.042969 154.546875 L 99.523438 154.566406 L 99.503906 154.574219 C 92.957031 154.773438 87.355469 158.953125 84.832031 165.558594 L 84.53125 165.914062 L 84.496094 165.984375 C 77.597656 164.386719 70.964844 161.675781 64.804688 157.941406 C 68.066406 150.414062 66.992188 143.933594 61.605469 138.671875 C 58.386719 135.542969 54.746094 133.972656 50.722656 133.972656 C 48.148438 133.972656 45.417969 134.613281 42.546875 135.898438 C 38.6875 129.722656 35.890625 123.085938 34.210938 116.175781 C 42.046875 113.132812 45.929688 107.703125 45.75 100.042969 C 45.570312 92.683594 41.621094 87.53125 34.007812 84.746094 C 35.613281 77.699219 38.328125 70.992188 42.058594 64.820312 C 49.699219 68.34375 56.289062 67.351562 61.632812 61.882812 C 66.949219 56.492188 67.835938 49.933594 64.253906 42.40625 C 70.292969 38.617188 76.96875 35.820312 84.089844 34.066406 C 87.230469 42.535156 93.027344 46.527344 101.320312 45.929688 C 108.207031 45.414062 113.179688 41.292969 115.675781 34.011719 Z M 100 52 C 73.535156 52 52 73.535156 52 100 C 52 126.464844 73.535156 148 100 148 C 126.464844 148 148 126.464844 148 100 C 148 87.078125 142.921875 74.957031 133.703125 65.855469 C 133.308594 65.464844 132.675781 65.472656 132.289062 65.863281 C 131.902344 66.257812 131.90625 66.890625 132.296875 67.277344 C 141.132812 76 146 87.621094 146 100 C 146 125.367188 125.367188 146 100 146 C 74.632812 146 54 125.367188 54 100 C 54 74.632812 74.632812 54 100 54 C 104.320312 54 108.597656 54.601562 112.722656 55.789062 C 113.257812 55.941406 113.808594 55.636719 113.960938 55.105469 C 114.113281 54.574219 113.808594 54.019531 113.277344 53.867188 C 108.972656 52.628906 104.507812 52 100 52 Z M 126.828125 60.566406 C 126.574219 60.609375 126.339844 60.746094 126.179688 60.972656 C 125.863281 61.421875 125.96875 62.050781 126.421875 62.367188 C 127.085938 62.835938 127.742188 63.320312 128.378906 63.824219 C 128.5625 63.96875 128.785156 64.039062 129 64.039062 C 129.292969 64.039062 129.585938 63.902344 129.78125 63.65625 C 130.125 63.222656 130.050781 62.597656 129.617188 62.253906 C 128.953125 61.726562 128.269531 61.21875 127.574219 60.730469 C 127.347656 60.574219 127.082031 60.523438 126.828125 60.566406 Z M 107.203125 64.761719 C 106.910156 64.703125 106.601562 64.777344 106.367188 64.964844 C 106.132812 65.15625 106 65.441406 106 65.742188 L 106 77 C 106 77.550781 106.445312 78 106.996094 78 C 107.546875 78 107.996094 77.550781 107.996094 77 L 107.996094 66.988281 C 112.429688 68.070312 116.683594 70.082031 120.359375 72.84375 L 120.714844 73.113281 C 120.949219 73.289062 121.183594 73.460938 121.410156 73.648438 C 121.550781 73.765625 121.691406 73.882812 121.828125 74.007812 L 122.109375 74.25 C 126.652344 78.1875 130.105469 83.269531 132.089844 88.9375 C 133.359375 92.59375 134 96.316406 134 100 C 134 103.609375 133.425781 107.167969 132.296875 110.597656 L 115.9375 101.328125 C 115.976562 100.875 116 100.433594 116 100 C 116 94.269531 112.953125 89.019531 108 86.15625 L 108 83.136719 C 108 82.585938 107.550781 82.136719 107 82.136719 C 106.449219 82.136719 106 82.585938 106 83.136719 L 106 86.746094 C 106 87.117188 106.207031 87.457031 106.53125 87.632812 C 111.066406 90.035156 114 94.886719 114 100 C 114 100.5625 113.957031 101.132812 113.878906 101.742188 C 113.828125 102.144531 114.023438 102.542969 114.378906 102.742188 L 132.351562 112.925781 C 132.5 113.015625 132.671875 113.054688 132.84375 113.054688 C 132.957031 113.054688 133.074219 113.039062 133.1875 112.996094 C 133.464844 112.894531 133.679688 112.679688 133.78125 112.402344 C 135.253906 108.410156 136 104.238281 136 100 C 136 96.09375 135.320312 92.152344 133.980469 88.277344 C 131.878906 82.277344 128.226562 76.902344 123.421875 72.738281 L 123.148438 72.503906 C 122.992188 72.367188 122.832031 72.222656 122.675781 72.097656 C 122.429688 71.894531 122.175781 71.703125 121.921875 71.511719 L 121.5625 71.246094 C 117.320312 68.058594 112.355469 65.816406 107.203125 64.761719 Z M 92.800781 64.765625 C 87.648438 65.820312 82.679688 68.0625 78.433594 71.253906 L 78.089844 71.515625 C 77.832031 71.707031 77.570312 71.898438 77.328125 72.097656 C 77.167969 72.226562 77.007812 72.367188 76.855469 72.503906 L 76.578125 72.742188 C 71.773438 76.90625 68.125 82.277344 66.019531 88.285156 C 64.679688 92.152344 64 96.09375 64 100 C 64 101.136719 64.082031 102.246094 64.152344 103.09375 L 64.253906 104.132812 C 64.578125 106.941406 65.234375 109.714844 66.203125 112.363281 C 66.304688 112.640625 66.519531 112.855469 66.796875 112.957031 C 66.910156 113 67.027344 113.019531 67.144531 113.019531 C 67.316406 113.019531 67.484375 112.976562 67.636719 112.890625 L 85.621094 102.734375 C 85.976562 102.53125 86.171875 102.132812 86.121094 101.730469 C 86.042969 101.128906 86 100.558594 86 100 C 86 94.886719 88.933594 90.035156 93.46875 87.632812 C 93.792969 87.457031 94 87.117188 94 86.746094 L 94 65.742188 C 94 65.441406 93.863281 65.15625 93.632812 64.96875 C 93.398438 64.777344 93.09375 64.707031 92.800781 64.765625 Z M 92 66.992188 L 92 86.15625 C 87.046875 89.019531 84 94.269531 84 100 C 84 100.433594 84.019531 100.867188 84.0625 101.316406 L 67.699219 110.558594 C 66.992188 108.402344 66.5 106.167969 66.242188 103.925781 L 66.148438 102.910156 C 66.0625 101.949219 66 100.980469 66 100 C 66 96.316406 66.640625 92.597656 67.902344 88.945312 C 69.890625 83.269531 73.34375 78.195312 77.890625 74.253906 L 78.171875 74.007812 C 78.308594 73.886719 78.445312 73.769531 78.589844 73.648438 C 78.816406 73.464844 79.046875 73.292969 79.285156 73.113281 L 79.632812 72.851562 C 83.3125 70.085938 87.566406 68.074219 92 66.992188 Z M 107.101562 112.207031 C 106.933594 112.203125 106.769531 112.242188 106.617188 112.324219 C 102.542969 114.519531 97.472656 114.523438 93.386719 112.328125 C 93.085938 112.164062 92.710938 112.171875 92.417969 112.34375 L 73.890625 122.941406 C 73.625 123.089844 73.441406 123.355469 73.398438 123.65625 C 73.351562 123.957031 73.445312 124.265625 73.652344 124.488281 C 75.09375 126.039062 76.679688 127.46875 78.367188 128.742188 C 78.804688 129.070312 79.433594 128.988281 79.769531 128.542969 C 80.101562 128.101562 80.011719 127.476562 79.570312 127.144531 C 78.3125 126.195312 77.117188 125.152344 75.996094 124.035156 L 92.9375 114.34375 C 97.351562 116.515625 102.664062 116.511719 107.0625 114.34375 L 124.011719 124.03125 C 117.648438 130.382812 108.96875 134 100 134 C 97.054688 134 94.125 133.617188 91.285156 132.859375 C 90.75 132.722656 90.199219 133.035156 90.058594 133.566406 C 89.914062 134.097656 90.234375 134.648438 90.769531 134.789062 C 93.777344 135.589844 96.878906 136 100 136 C 109.945312 136 119.550781 131.796875 126.355469 124.480469 C 126.5625 124.257812 126.65625 123.949219 126.609375 123.648438 C 126.566406 123.347656 126.382812 123.082031 126.117188 122.933594 L 107.585938 112.339844 C 107.4375 112.253906 107.269531 112.210938 107.101562 112.207031 Z M 83.09375 129.566406 C 82.707031 129.523438 82.3125 129.707031 82.109375 130.070312 C 81.839844 130.554688 82.011719 131.164062 82.492188 131.433594 C 83.183594 131.816406 83.886719 132.179688 84.597656 132.519531 C 84.734375 132.585938 84.882812 132.617188 85.027344 132.617188 C 85.398438 132.617188 85.757812 132.40625 85.929688 132.046875 C 86.167969 131.550781 85.953125 130.949219 85.457031 130.714844 C 84.78125 130.394531 84.117188 130.054688 83.46875 129.6875 C 83.347656 129.621094 83.222656 129.582031 83.09375 129.566406 Z M 83.09375 129.566406 "/>
</g>
</svg>
