<?xml version="1.0" encoding="UTF-8"?>
<svg xmlns="http://www.w3.org/2000/svg" xmlns:xlink="http://www.w3.org/1999/xlink" width="128pt" height="128pt" viewBox="0 0 128 128" version="1.1">
<g id="surface1115370">
<path style=" stroke:none;fill-rule:nonzero;fill:rgb(20.392157%,59.607843%,85.882353%);fill-opacity:1;" d="M 10 4 C 6.703125 4 4 6.703125 4 10 L 4 74 C 4 77.296875 6.703125 80 10 80 L 36 80 L 36 118 C 36 121.296875 38.703125 124 42 124 L 118 124 C 121.296875 124 124 121.296875 124 118 L 124 54 C 124 50.703125 121.296875 48 118 48 L 92 48 L 92 10 C 92 6.703125 89.296875 4 86 4 Z M 10 8 L 86 8 C 87.101562 8 88 8.898438 88 10 L 88 48 L 80 48 L 80 38 C 80 36.890625 79.109375 36 78 36 L 54 36 C 52.890625 36 52 36.890625 52 38 L 52 48 L 44 48 L 44 38 C 44 36.890625 43.109375 36 42 36 L 18 36 C 16.890625 36 16 36.890625 16 38 L 16 66 C 16 67.109375 16.890625 68 18 68 L 36 68 L 36 76 L 10 76 C 8.898438 76 8 75.101562 8 74 L 8 28 L 66 28 C 67.109375 28 68 27.109375 68 26 C 68 24.890625 67.109375 24 66 24 L 8 24 L 8 10 C 8 8.898438 8.898438 8 10 8 Z M 12 12 C 10.890625 12 10 12.890625 10 14 L 10 18 C 10 19.109375 10.890625 20 12 20 C 13.109375 20 14 19.109375 14 18 L 14 14 C 14 12.890625 13.109375 12 12 12 Z M 22 12 C 20.890625 12 20 12.890625 20 14 L 20 18 C 20 19.109375 20.890625 20 22 20 C 23.109375 20 24 19.109375 24 18 L 24 14 C 24 12.890625 23.109375 12 22 12 Z M 32 12 C 30.890625 12 30 12.890625 30 14 L 30 18 C 30 19.109375 30.890625 20 32 20 C 33.109375 20 34 19.109375 34 18 L 34 14 C 34 12.890625 33.109375 12 32 12 Z M 42 12 C 40.890625 12 40 12.890625 40 14 L 40 18 C 40 19.109375 40.890625 20 42 20 C 43.109375 20 44 19.109375 44 18 L 44 14 C 44 12.890625 43.109375 12 42 12 Z M 52 12 C 50.890625 12 50 12.890625 50 14 L 50 18 C 50 19.109375 50.890625 20 52 20 C 53.109375 20 54 19.109375 54 18 L 54 14 C 54 12.890625 53.109375 12 52 12 Z M 62 12 C 60.890625 12 60 12.890625 60 14 L 60 18 C 60 19.109375 60.890625 20 62 20 C 63.109375 20 64 19.109375 64 18 L 64 14 C 64 12.890625 63.109375 12 62 12 Z M 72 12 C 70.890625 12 70 12.890625 70 14 L 70 18 C 70 19.109375 70.890625 20 72 20 C 73.109375 20 74 19.109375 74 18 L 74 14 C 74 12.890625 73.109375 12 72 12 Z M 82 12 C 80.890625 12 80 12.890625 80 14 L 80 18 C 80 19.109375 80.890625 20 82 20 C 83.109375 20 84 19.109375 84 18 L 84 14 C 84 12.890625 83.109375 12 82 12 Z M 74 24 C 72.890625 24 72 24.890625 72 26 C 72 27.109375 72.890625 28 74 28 L 82 28 C 83.109375 28 84 27.109375 84 26 C 84 24.890625 83.109375 24 82 24 Z M 20 40 L 40 40 L 40 48.375 C 37.679688 49.203125 36 51.40625 36 54 L 36 64 L 20 64 Z M 56 40 L 76 40 L 76 48 L 56 48 Z M 42 52 L 118 52 C 119.101562 52 120 52.898438 120 54 L 120 118 C 120 119.101562 119.101562 120 118 120 L 42 120 C 40.898438 120 40 119.101562 40 118 L 40 72 L 98 72 C 99.109375 72 100 71.109375 100 70 C 100 68.890625 99.109375 68 98 68 L 40 68 L 40 54 C 40 52.898438 40.898438 52 42 52 Z M 44 56 C 42.890625 56 42 56.890625 42 58 L 42 62 C 42 63.109375 42.890625 64 44 64 C 45.109375 64 46 63.109375 46 62 L 46 58 C 46 56.890625 45.109375 56 44 56 Z M 54 56 C 52.890625 56 52 56.890625 52 58 L 52 62 C 52 63.109375 52.890625 64 54 64 C 55.109375 64 56 63.109375 56 62 L 56 58 C 56 56.890625 55.109375 56 54 56 Z M 64 56 C 62.890625 56 62 56.890625 62 58 L 62 62 C 62 63.109375 62.890625 64 64 64 C 65.109375 64 66 63.109375 66 62 L 66 58 C 66 56.890625 65.109375 56 64 56 Z M 74 56 C 72.890625 56 72 56.890625 72 58 L 72 62 C 72 63.109375 72.890625 64 74 64 C 75.109375 64 76 63.109375 76 62 L 76 58 C 76 56.890625 75.109375 56 74 56 Z M 84 56 C 82.890625 56 82 56.890625 82 58 L 82 62 C 82 63.109375 82.890625 64 84 64 C 85.109375 64 86 63.109375 86 62 L 86 58 C 86 56.890625 85.109375 56 84 56 Z M 94 56 C 92.890625 56 92 56.890625 92 58 L 92 62 C 92 63.109375 92.890625 64 94 64 C 95.109375 64 96 63.109375 96 62 L 96 58 C 96 56.890625 95.109375 56 94 56 Z M 104 56 C 102.890625 56 102 56.890625 102 58 L 102 62 C 102 63.109375 102.890625 64 104 64 C 105.109375 64 106 63.109375 106 62 L 106 58 C 106 56.890625 105.109375 56 104 56 Z M 114 56 C 112.890625 56 112 56.890625 112 58 L 112 62 C 112 63.109375 112.890625 64 114 64 C 115.109375 64 116 63.109375 116 62 L 116 58 C 116 56.890625 115.109375 56 114 56 Z M 106 68 C 104.890625 68 104 68.890625 104 70 C 104 71.109375 104.890625 72 106 72 L 114 72 C 115.109375 72 116 71.109375 116 70 C 116 68.890625 115.109375 68 114 68 Z M 50 80 C 48.890625 80 48 80.890625 48 82 L 48 110 C 48 111.109375 48.890625 112 50 112 L 74 112 C 75.109375 112 76 111.109375 76 110 L 76 82 C 76 80.890625 75.109375 80 74 80 Z M 86 80 C 84.890625 80 84 80.890625 84 82 L 84 110 C 84 111.109375 84.890625 112 86 112 L 110 112 C 111.109375 112 112 111.109375 112 110 L 112 82 C 112 80.890625 111.109375 80 110 80 Z M 52 84 L 72 84 L 72 108 L 52 108 Z M 88 84 L 108 84 L 108 108 L 88 108 Z M 88 84 "/>
</g>
</svg>
