<?xml version="1.0" encoding="UTF-8"?>
<svg xmlns="http://www.w3.org/2000/svg" xmlns:xlink="http://www.w3.org/1999/xlink" width="128pt" height="128pt" viewBox="0 0 128 128" version="1.1">
<g id="surface1187600">
<path style=" stroke:none;fill-rule:nonzero;fill:rgb(20.392157%,59.607843%,85.882353%);fill-opacity:1;" d="M 16 8 C 11.578125 8 8 11.578125 8 16 L 8 88 C 8 92.421875 11.578125 96 16 96 L 57.640625 96 L 64.078125 118.539062 C 64.101562 118.609375 64.140625 118.664062 64.164062 118.726562 C 64.210938 118.828125 64.242188 118.921875 64.304688 119.015625 C 64.390625 119.164062 64.492188 119.28125 64.617188 119.40625 C 64.65625 119.445312 64.671875 119.5 64.71875 119.53125 C 64.734375 119.546875 64.75 119.546875 64.757812 119.5625 C 64.890625 119.664062 65.046875 119.742188 65.203125 119.8125 C 65.25 119.835938 65.296875 119.867188 65.34375 119.882812 C 65.539062 119.953125 65.75 119.992188 65.96875 120 C 65.984375 120 65.992188 120 66 120 L 112 120 C 116.421875 120 120 116.421875 120 112 L 120 40 C 120 35.578125 116.421875 32 112 32 L 70.359375 32 L 64.757812 12.359375 C 64.023438 9.78125 61.640625 8 58.976562 8 Z M 16 12 L 58.976562 12 C 59.882812 12 60.65625 12.601562 60.898438 13.460938 L 66.195312 32 L 67.34375 36 L 83.34375 92 L 16 92 C 13.796875 92 12 90.203125 12 88 L 12 16 C 12 13.796875 13.796875 12 16 12 Z M 18 16 C 16.898438 16 16 16.898438 16 18 L 16 22 C 16 23.101562 16.898438 24 18 24 C 19.101562 24 20 23.101562 20 22 L 20 18 C 20 16.898438 19.101562 16 18 16 Z M 28 16 C 26.898438 16 26 16.898438 26 18 L 26 22 C 26 23.101562 26.898438 24 28 24 C 29.101562 24 30 23.101562 30 22 L 30 18 C 30 16.898438 29.101562 16 28 16 Z M 38 16 C 36.898438 16 36 16.898438 36 18 L 36 22 C 36 23.101562 36.898438 24 38 24 C 39.101562 24 40 23.101562 40 22 L 40 18 C 40 16.898438 39.101562 16 38 16 Z M 48 16 C 46.898438 16 46 16.898438 46 18 L 46 22 C 46 23.101562 46.898438 24 48 24 C 49.101562 24 50 23.101562 50 22 L 50 18 C 50 16.898438 49.101562 16 48 16 Z M 58 16 C 56.898438 16 56 16.898438 56 18 L 56 22 C 56 23.101562 56.898438 24 58 24 C 59.101562 24 60 23.101562 60 22 L 60 18 C 60 16.898438 59.101562 16 58 16 Z M 42.78125 35.9375 C 41.921875 35.9375 41.15625 36.492188 40.882812 37.304688 L 30.085938 69.304688 C 29.726562 70.34375 30.289062 71.484375 31.335938 71.835938 C 32.382812 72.195312 33.515625 71.625 33.875 70.578125 L 37.476562 59.875 C 37.578125 59.898438 37.671875 59.9375 37.78125 59.9375 L 47.78125 59.9375 C 47.882812 59.9375 47.96875 59.898438 48.070312 59.875 L 51.6875 70.578125 C 51.96875 71.414062 52.742188 71.9375 53.570312 71.9375 C 53.789062 71.9375 54 71.90625 54.21875 71.835938 C 55.257812 71.484375 55.820312 70.34375 55.46875 69.304688 L 44.671875 37.304688 C 44.398438 36.492188 43.632812 35.9375 42.78125 35.9375 Z M 71.523438 36 L 112 36 C 114.203125 36 116 37.796875 116 40 L 116 112 C 116 114.203125 114.203125 116 112 116 L 70.273438 116 L 76 109.125 L 76 110 C 76 111.101562 76.898438 112 78 112 C 79.101562 112 80 111.101562 80 110 L 80 106 C 80 105.554688 79.828125 105.15625 79.578125 104.828125 L 87.53125 95.28125 C 87.546875 95.265625 87.546875 95.25 87.5625 95.226562 C 87.570312 95.21875 87.585938 95.210938 87.59375 95.195312 C 87.648438 95.132812 87.648438 95.054688 87.6875 94.992188 C 87.789062 94.820312 87.882812 94.65625 87.929688 94.46875 C 87.953125 94.359375 87.945312 94.257812 87.960938 94.148438 C 87.96875 93.960938 87.960938 93.789062 87.929688 93.601562 C 87.914062 93.554688 87.929688 93.507812 87.914062 93.460938 L 85.375 84.5625 C 87.429688 83.375 89.328125 81.953125 91.03125 80.375 C 95.328125 84.773438 100.9375 87.9375 105.96875 87.9375 C 107.078125 87.9375 107.96875 87.046875 107.96875 85.9375 C 107.96875 84.835938 107.078125 83.9375 105.96875 83.9375 C 101.984375 83.9375 97.328125 81.203125 93.75 77.5 C 97.632812 72.851562 99.96875 67.289062 99.96875 61.9375 L 99.96875 59.9375 L 105.96875 59.9375 C 107.078125 59.9375 107.96875 59.046875 107.96875 57.9375 C 107.96875 56.835938 107.078125 55.9375 105.96875 55.9375 L 91.96875 55.9375 L 91.96875 51.9375 C 91.96875 50.835938 91.078125 49.9375 89.96875 49.9375 C 88.867188 49.9375 87.96875 50.835938 87.96875 51.9375 L 87.96875 55.9375 L 81.96875 55.9375 C 80.867188 55.9375 79.96875 56.835938 79.96875 57.9375 C 79.96875 59.046875 80.867188 59.9375 81.96875 59.9375 L 95.96875 59.9375 L 95.96875 61.9375 C 95.96875 66.40625 94.007812 70.726562 91.132812 74.328125 C 89.210938 71.578125 87.96875 68.617188 87.96875 65.9375 C 87.96875 64.835938 87.078125 63.9375 85.96875 63.9375 C 84.867188 63.9375 83.96875 64.835938 83.96875 65.9375 C 83.96875 69.671875 85.710938 73.71875 88.398438 77.320312 C 87.085938 78.5625 85.671875 79.640625 84.234375 80.5625 Z M 42.78125 44.195312 L 46.742188 55.9375 L 38.8125 55.9375 Z M 61.804688 96 L 81.726562 96 L 66.875 113.820312 Z M 88 104 C 86.898438 104 86 104.898438 86 106 L 86 110 C 86 111.101562 86.898438 112 88 112 C 89.101562 112 90 111.101562 90 110 L 90 106 C 90 104.898438 89.101562 104 88 104 Z M 98 104 C 96.898438 104 96 104.898438 96 106 L 96 110 C 96 111.101562 96.898438 112 98 112 C 99.101562 112 100 111.101562 100 110 L 100 106 C 100 104.898438 99.101562 104 98 104 Z M 108 104 C 106.898438 104 106 104.898438 106 106 L 106 110 C 106 111.101562 106.898438 112 108 112 C 109.101562 112 110 111.101562 110 110 L 110 106 C 110 104.898438 109.101562 104 108 104 Z M 108 104 "/>
</g>
</svg>
