<svg xmlns="http://www.w3.org/2000/svg" viewBox="0 0 64 64" width="128px" height="128px"><rect width="58" height="44" x="3" y="15" fill="#85cbf8" rx="2" ry="2"/><path fill="#fff7f0" d="M42.39,37a1,1,0,0,1-.49.86L26.48,47.09A1,1,0,0,1,25,46.24V27.76a1,1,0,0,1,1.52-.85L41.9,36.14A1,1,0,0,1,42.39,37Z"/><path fill="#7bbeeb" d="M3,54H61a0,0,0,0,1,0,0v2a3,3,0,0,1-3,3H6a3,3,0,0,1-3-3V54A0,0,0,0,1,3,54Z"/><path fill="#faefde" d="M42.39,37a1,1,0,0,1-.49.86L26.48,47.09A1,1,0,0,1,25,46.24V37Z"/><path fill="#9fddff" d="M6,15H58a3,3,0,0,1,3,3v2a0,0,0,0,1,0,0H3a0,0,0,0,1,0,0V18a3,3,0,0,1,3-3Z"/><path fill="#7bbeeb" d="M53,11H49V9a2,2,0,0,0-2-2H17a2,2,0,0,0-2,2v2H11a2,2,0,0,0-2,2v3H55V13A2,2,0,0,0,53,11Z"/><path fill="#8d6c9f" d="M59,14H56a.94.94,0,0,0,0-.12V13a3,3,0,0,0-3-3H50a.94.94,0,0,0,0-.12V9a3,3,0,0,0-3-3H17a3,3,0,0,0-3,3v1H11a3,3,0,0,0-3,3v1H5a3,3,0,0,0-3,3V57a3,3,0,0,0,3,3H59a3,3,0,0,0,3-3V17A3,3,0,0,0,59,14ZM16,9a1,1,0,0,1,1-1H47a1,1,0,0,1,1,1v.88A.94.94,0,0,0,48,10H16Zm-6,4a1,1,0,0,1,1-1H53a1,1,0,0,1,1,1v.88A.94.94,0,0,0,54,14H10ZM60,57a1,1,0,0,1-1,1H5a1,1,0,0,1-1-1V17a1,1,0,0,1,1-1H59a1,1,0,0,1,1,1Z"/><path fill="#8d6c9f" d="M12 18a1 1 0 0 0-1 1v2a1 1 0 0 0 2 0V19A1 1 0 0 0 12 18zM7 18a1 1 0 0 0-1 1v2a1 1 0 0 0 2 0V19A1 1 0 0 0 7 18zM27 22a1 1 0 0 0 1-1V19a1 1 0 0 0-2 0v2A1 1 0 0 0 27 22zM32 22a1 1 0 0 0 1-1V19a1 1 0 0 0-2 0v2A1 1 0 0 0 32 22zM37 22a1 1 0 0 0 1-1V19a1 1 0 0 0-2 0v2A1 1 0 0 0 37 22zM42 22a1 1 0 0 0 1-1V19a1 1 0 0 0-2 0v2A1 1 0 0 0 42 22zM47 18a1 1 0 0 0-1 1v2a1 1 0 0 0 2 0V19A1 1 0 0 0 47 18zM52 18a1 1 0 0 0-1 1v2a1 1 0 0 0 2 0V19A1 1 0 0 0 52 18zM57 18a1 1 0 0 0-1 1v2a1 1 0 0 0 2 0V19A1 1 0 0 0 57 18zM17 18a1 1 0 0 0-1 1v2a1 1 0 0 0 2 0V19A1 1 0 0 0 17 18zM22 18a1 1 0 0 0-1 1v2a1 1 0 0 0 2 0V19A1 1 0 0 0 22 18zM12 52a1 1 0 0 0-1 1v2a1 1 0 0 0 2 0V53A1 1 0 0 0 12 52zM7 52a1 1 0 0 0-1 1v2a1 1 0 0 0 2 0V53A1 1 0 0 0 7 52zM27 52a1 1 0 0 0-1 1v2a1 1 0 0 0 2 0V53A1 1 0 0 0 27 52zM32 52a1 1 0 0 0-1 1v2a1 1 0 0 0 2 0V53A1 1 0 0 0 32 52zM37 52a1 1 0 0 0-1 1v2a1 1 0 0 0 2 0V53A1 1 0 0 0 37 52zM42 52a1 1 0 0 0-1 1v2a1 1 0 0 0 2 0V53A1 1 0 0 0 42 52zM47 52a1 1 0 0 0-1 1v2a1 1 0 0 0 2 0V53A1 1 0 0 0 47 52zM52 52a1 1 0 0 0-1 1v2a1 1 0 0 0 2 0V53A1 1 0 0 0 52 52zM57 52a1 1 0 0 0-1 1v2a1 1 0 0 0 2 0V53A1 1 0 0 0 57 52zM17 52a1 1 0 0 0-1 1v2a1 1 0 0 0 2 0V53A1 1 0 0 0 17 52zM22 52a1 1 0 0 0-1 1v2a1 1 0 0 0 2 0V53A1 1 0 0 0 22 52zM42.41 35.28L27 26a2 2 0 0 0-2 0 1.94 1.94 0 0 0-1 1.74V46.24A1.94 1.94 0 0 0 25 48a2 2 0 0 0 2 0l15.42-9.24a2 2 0 0 0 0-3.43zM26 46.24V27.76L41.39 37z"/></svg>