<?xml version="1.0" encoding="UTF-8"?>
<svg xmlns="http://www.w3.org/2000/svg" xmlns:xlink="http://www.w3.org/1999/xlink" width="100pt" height="100pt" viewBox="0 0 100 100" version="1.1">
<g id="surface691419">
<path style=" stroke:none;fill-rule:nonzero;fill:rgb(20.392157%,59.607843%,85.882353%);fill-opacity:1;" d="M 89.796875 29 C 89 24.601562 85.203125 21.398438 80.796875 20.398438 C 74.203125 19 62 18 48.796875 18 C 35.601562 18 23.203125 19 16.601562 20.398438 C 12.203125 21.398438 8.398438 24.398438 7.601562 29 C 6.796875 34 6 41 6 50 C 6 59 6.796875 66 7.796875 71 C 8.601562 75.398438 12.398438 78.601562 16.796875 79.601562 C 23.796875 81 35.796875 82 49 82 C 62.203125 82 74.203125 81 81.203125 79.601562 C 85.601562 78.601562 89.398438 75.601562 90.203125 71 C 91 66 92 58.796875 92.203125 50 C 91.796875 41 90.796875 34 89.796875 29 Z M 38 64 L 38 36 L 62.398438 50 Z M 38 64 "/>
</g>
</svg>
